<svg xmlns="http://www.w3.org/2000/svg" viewBox="0 0 3777 1451" xmlns:v="https://vecta.io/nano">
  <path
    d="M2830 1454H2V2h3778v1452h-950M161 107.5h-60.084v565.99h210.76v-12.473l.018-271.96c.007-17.406 2.437-34.459 8.127-50.978 5.296-15.374 13.429-29.038 25.701-39.769 20.761-18.154 45.234-22.985 71.768-17.944 17.221 3.272 31.481 12.006 42.637 25.767 12.704 15.671 18.406 33.629 18.405 53.61l-.002 301.95v11.439c14.697 2.028 203.58 1.383 211.35-.734v-11.633l.029-270.96c.014-19.102 2.786-37.778 10.12-55.567 14.323-34.744 45.387-61.33 92.667-54.551 29.72 4.261 49.113 22.051 59.789 49.675 5.497 14.222 6.007 29.237 6.017 44.222l.033 287.96v11.464c13.244 2.079 202.52 1.533 210.01-.56v-11.763l-.108-350.95c-.109-41.243-9.179-80.617-29.958-116.57-26.935-46.61-65.647-79.1-117.79-94.221-28.345-8.22-57.31-10.378-86.852-7.713-21.335 1.924-42.146 5.427-62.396 12.367-35.664 12.223-66.315 32.084-91.615 60.076-7.021 7.768-13.812 15.744-20.895 23.837-3.813-5.67-7.16-11.024-10.894-16.094-3.942-5.352-7.954-10.707-12.448-15.589-39.917-43.362-90.59-62.631-148.36-65.589-17.642-.903-35.225.502-52.654 3.375-45.455 7.493-84.596 26.998-115.99 61.199-1.594 1.736-3.719 2.984-6.994 5.557v-52.872h-150.39m3180.9 1237.7c9.518 2.988 18.915 6.458 28.575 8.873 28.981 7.244 58.462 9.205 88.207 6.947 28.389-2.155 55.983-7.972 82.372-18.897 49.479-20.484 88.24-54.089 118.3-97.906 31.931-46.547 46.394-99.043 50.218-154.73 1.918-27.919.769-55.812-3.03-83.641-9.179-67.255-36.182-125.45-85.425-172.93-31.591-30.459-68.26-51.636-110.58-63.133-35.178-9.558-71.037-11.204-107.01-7.548-46.23 4.698-87.782 21.172-122.66 52.744-2.841 2.572-5.959 4.838-10.582 8.563v-339.97h-210.05v878.82h210.1v-21.328c0-6.998-.228-14.006.066-20.991.279-6.634-1.346-13.485 1.436-20.942 20.696 19.704 42.929 35.25 70.063 46.057m-1307.6-392.23l-.101 119.97c-.391 36.352-15.414 65.117-47.323 83.581-21.96 12.707-46.061 14.653-70.682 10.46-23.843-4.06-42.656-16.061-55.795-36.682-7.595-11.92-13.054-24.722-16.353-38.392-2.553-10.576-4.49-21.302-6.913-32.988l-213 41.485c.387 3.715.426 6.362.968 8.901 2.983 13.978 5.475 28.099 9.267 41.859 12.414 45.043 34.026 85.176 66.126 119.31 42.015 44.675 93.907 71.591 153.69 83.452 55.157 10.943 110.49 10.842 165.62-.267 65.336-13.163 121.09-43.376 165.44-93.825 43.937-49.987 65.632-109.13 66.022-174.62l.418-585.84v-11.761c-4.827-.282-8.719-.706-12.61-.707-115.64-.035-231.27.085-346.91-.252-8.873-.026-12.789 3.12-16.113 10.852l-63.057 144.6-12.846 30.454c5.237.236 9.107.561 12.977.562l207.94.059c4.158.003 8.315.529 13.231.864v278.93m-564.01-562.38l-112.9-282.51h-222.84c1.127 3.175 1.859 5.687 2.887 8.072l118.21 273.92 109.42 253.78c3.247 7.476 3.036 13.443-.118 20.717l-116.61 270.26c-1.006 2.336-1.629 4.837-2.7 8.079h221.59l360.81-834.86h-223.36l-128.03 297.11-6.36-14.575m1095.3 968.8c37.253 8.366 74.848 11.417 113.03 8.733 32.763-2.303 64.645-8.236 95.519-19.446 47.785-17.351 88.792-44.871 123.91-81.601 46.345-48.474 70.558-106.56 75.529-172.88 1.815-24.209 1.699-48.537-1.443-72.773-5.117-39.468-16.944-76.618-37.88-110.56-34.278-55.573-82.385-95.392-141.61-121.94-37.144-16.648-76.373-24.651-117.01-27.142-40.261-2.467-79.823.94-118.71 11.203-50.513 13.33-94.761 38.258-133.43 73.386-35.948 32.657-62.699 71.33-78.377 117.44-15.943 46.886-18.741 95.088-13.26 143.88 8.092 72.028 40.427 131.49 94.641 179.29 39.956 35.234 85.653 59.487 139.1 72.409m-515.19-924.64c5.644 1.979 11.185 4.355 16.95 5.874 51.643 13.603 97.321 1.669 135.18-35.272 30.782-30.038 43.564-68.158 39.362-111-7.758-79.106-80.634-135.94-160.69-121.79-85.72 15.158-135.4 102.32-105 184.54 13.182 35.659 38.008 61.29 74.203 77.646z"
    opacity="0" />
  <path
    d="M162 107.54h149.39v52.872c3.274-2.572 5.4-3.82 6.994-5.556 31.394-34.201 70.535-53.706 115.99-61.199 17.428-2.873 35.011-4.278 52.654-3.375 57.766 2.958 108.44 22.227 148.36 65.589 4.494 4.882 8.506 10.237 12.448 15.589 3.734 5.07 7.081 10.425 10.894 16.094l20.895-23.837c25.3-27.991 55.951-47.853 91.615-60.076 20.25-6.94 41.06-10.442 62.396-12.367 29.542-2.665 58.507-.507 86.852 7.713 52.139 15.121 90.851 47.612 117.79 94.221 20.779 35.957 29.85 75.331 29.958 116.57l.108 350.95v11.763c-7.497 2.093-196.77 2.639-210.01.56v-11.464l-.033-287.96c-.01-14.984-.52-30-6.017-44.222-10.676-27.624-30.069-45.414-59.789-49.675-47.28-6.779-78.344 19.807-92.667 54.551-7.334 17.79-10.106 36.465-10.12 55.567l-.029 270.96v11.633c-7.764 2.117-196.65 2.762-211.35.734v-11.439l.002-301.95c.001-19.981-5.702-37.94-18.405-53.61-11.156-13.761-25.415-22.495-42.637-25.767-26.535-5.041-51.007-.21-71.768 17.944-12.272 10.731-20.404 24.395-25.701 39.769-5.691 16.519-8.12 33.572-8.127 50.978l-.018 271.96v12.473h-210.76v-565.99h61.084z"
    fill="#d57b21" />
  <path
    d="M3341.2 1344.9c-26.445-10.463-48.678-26.009-69.374-45.713-2.782 7.457-1.157 14.308-1.436 20.942-.294 6.986-.066 13.993-.066 20.991v21.328h-210.1v-878.82h210.05v339.97c4.623-3.725 7.741-5.991 10.582-8.563 34.878-31.572 76.429-48.046 122.66-52.744 35.977-3.656 71.836-2.01 107.01 7.548 42.316 11.497 78.985 32.674 110.58 63.133 49.243 47.479 76.246 105.67 85.425 172.93 3.798 27.829 4.947 55.722 3.03 83.641-3.824 55.682-18.287 108.18-50.218 154.73-30.057 43.817-68.818 77.422-118.3 97.906-26.388 10.925-53.982 16.742-82.372 18.897-29.745 2.258-59.226.297-88.207-6.947-9.661-2.415-19.058-5.885-29.265-9.217m153.88-245.13c4.422-19.951 5.927-39.978 3.057-60.372-4.284-30.441-16.551-56.55-39.771-77.147-20.764-18.419-45.38-24.938-72.667-25.532-46.254-1.006-86.832 30.016-104.01 69.759-12.585 29.109-14.409 59.232-6.851 89.82 11.06 44.758 50.086 88.21 108.01 89.545 56.768 1.309 97.075-32.483 112.23-86.073z"
    fill="#285699" />
  <path
    d="M2034.3 952V674.07c-4.916-.334-9.073-.86-13.231-.864l-207.94-.059c-3.87-.002-7.741-.326-12.977-.562l12.846-30.454 63.057-144.6c3.324-7.732 7.24-10.878 16.113-10.852l346.91.252c3.891.001 7.782.426 12.61.707V499.4l-.418 585.84c-.39 65.494-22.085 124.63-66.022 174.62-44.343 50.449-100.1 80.661-165.44 93.825-55.139 11.109-110.47 11.21-165.62.267-59.785-11.861-111.68-38.777-153.69-83.452-32.1-34.132-53.713-74.265-66.126-119.31-3.792-13.76-6.284-27.881-9.267-41.859-.542-2.539-.58-5.186-.968-8.901l213-41.485 6.913 32.988c3.3 13.67 8.758 26.472 16.353 38.392 13.14 20.621 31.953 32.621 55.795 36.682 24.622 4.193 48.722 2.247 70.682-10.46 31.909-18.464 46.932-47.229 47.323-83.581l.101-120.97z"
    fill="#285698" />
  <path
    d="M1470.6 391.31l6.064 13.88 128.03-297.11h223.36l-360.81 834.86h-221.59l2.7-8.079 116.61-270.26c3.154-7.273 3.365-13.241.118-20.717l-109.42-253.78-118.21-273.92c-1.029-2.385-1.761-4.897-2.887-8.072h222.84l113.2 283.2z"
    fill="#d57b21" />
  <path
    d="M2564.8 1359.2c-52.641-12.737-98.338-36.991-138.29-72.224-54.214-47.806-86.55-107.26-94.641-179.29-5.481-48.789-2.683-96.991 13.26-143.88 15.678-46.105 42.429-84.778 78.377-117.44 38.668-35.128 82.917-60.056 133.43-73.386 38.89-10.263 78.452-13.67 118.71-11.203 40.64 2.491 79.869 10.494 117.01 27.142 59.223 26.544 107.33 66.362 141.61 121.94 20.936 33.943 32.763 71.092 37.88 110.56 3.142 24.237 3.257 48.564 1.443 72.773-4.971 66.313-29.184 124.4-75.529 172.88-35.117 36.73-76.124 64.25-123.91 81.601-30.874 11.21-62.756 17.143-95.519 19.446-38.177 2.684-75.772-.367-113.83-8.918m28.338-93.403c2.336 1.254 4.546 3.195 7.028 3.651 15.662 2.874 27.839 12.073 40.235 21.154 22.821 16.718 45.46 33.852 73.442 41.492 1.58.431 2.973 1.504 4.526 2.084 13.851 5.166 28.198 9.335 42.909 6.877 15.339-2.564 30.482-6.716 45.409-11.182 11.713-3.504 19.735-11.961 24.932-23.064 6.739-14.396 8.72-29.277 4.574-44.725l-23.027-84.76c-.962-3.502-2.242-7.021-4.005-10.18-5.839-10.465-15.3-13.607-26.295-9.026-2.049.854-4.034 1.861-5.87 2.715-9.585-11.246-21.119-13.17-37.727-1.236-15.832-11.937-28.728-5.473-40.583 7.768l-2.722-9.539-21.428-77.951c-3.073-10.932-10.275-16.312-20.073-15.859-10.917.505-20.784 8.368-22.573 19.198-.838 5.073-.394 10.678.815 15.718l34.475 141.58c.531 2.178.718 4.439 1.363 8.573l-15.547-9.366c-14.081-8.001-29.19-11.223-45.186-8.38-16.099 2.861-23.289 18.534-14.672 34.453m207.1-325.02c1.107 1.245 2.252 2.46 3.317 3.74 37.001 44.5 53.437 95.408 46.675 153.11-1.578 13.467-5.381 26.698-8.584 39.936-1.028 4.248-1.71 7.9 2.358 10.637 5.803 3.903 11.552 7.937 17.643 11.344 5.24 2.932 8.343 1.448 10.978-4.346.824-1.811 1.392-3.741 2.038-5.63 12.892-37.69 15.721-76.29 8.775-115.35-22.813-128.29-144.44-213.11-272.71-190.58-112.87 19.824-196.14 119.62-193.98 234.15 1.305 69.517 28.564 127.85 80.627 174.29 1.739 1.551 3.464 3.166 5.4 4.441 5.032 3.313 8.485 2.633 11.593-2.583 2.381-3.995 4.267-8.286 6.338-12.463 5.286-10.658 5.279-10.662-3.312-18.526-69.534-63.644-85.63-164.66-39.282-246.52 41.454-73.215 123.27-112.45 206.47-98.762 45.328 7.455 83.365 28.634 115.66 63.105m-258.64 45.774c-29.349 38.557-38.354 81.228-25.481 128.11 5.365 19.542 15.017 36.96 28.349 52.233 5.914 6.774 10.197 6.215 14.521-1.562 2.262-4.069 3.907-8.502 6.375-12.429 4.096-6.514 3.278-11.828-1.225-18.171-12.678-17.86-18.645-38.002-18.527-60.028.281-52.619 39.367-97.389 90.265-105.03 51.815-7.782 104.54 24.945 118.63 77.269 3.338 12.401 4.151 24.898 3.377 37.605-.222 3.643-.889 7.488 2.854 9.951 6.394 4.208 12.68 8.621 19.325 12.395 4.725 2.684 8.365.996 10.213-4.048.794-2.166 1.174-4.511 1.523-6.808 2.634-17.305 1.934-34.484-1.729-51.607-12.497-58.43-64.152-104.98-123.59-110.14-49.903-4.332-91.448 12.801-124.88 52.254m163.63 137.18c1.307-1.511 2.678-2.971 3.91-4.541 19.751-25.17 21.911-58.109 5.601-85.109-16.062-26.591-47.027-40.121-78.157-34.153-33.245 6.374-57.591 34.852-59.608 69.727-1.868 32.282 19.63 63.387 50.829 73.482 1.18.382 2.487.371 4.666.671-.569-3.495-.874-6.38-1.524-9.186-3.081-13.29-6.758-26.468-9.169-39.876-1.077-5.991-.754-12.714.81-18.606 3.925-14.784 19.34-25.771 34.482-25.757 14.026.013 24.349 9.169 28.896 25.69l11.878 43.326c.693 2.504 1.663 4.931 2.67 7.875 1.613-1.13 2.672-1.872 4.716-3.543z"
    fill="#295799" />
  <path
    d="M2049.7 434.44c-35.509-16.019-60.335-41.65-73.516-77.308-30.394-82.222 19.284-169.38 105-184.54 80.054-14.156 152.93 42.683 160.69 121.79 4.202 42.842-8.58 80.962-39.362 111-37.856 36.941-83.534 48.875-135.18 35.272-5.766-1.519-11.306-3.895-17.637-6.212z"
    fill="#d57b21" />
  <path
    d="M3494.8 1100.5c-14.851 52.823-55.158 86.615-111.93 85.306-57.928-1.335-96.954-44.787-108.01-89.545-7.559-30.589-5.735-60.711 6.851-89.82 17.182-39.743 57.76-70.765 104.01-69.759 27.287.593 51.903 7.113 72.667 25.532 23.22 20.597 35.488 46.706 39.771 77.147 2.87 20.394 1.366 40.421-3.362 61.139z"
    fill="#000001" opacity="0" />
  <path
    d="M2592.6 1265.3c-8.086-15.372-.896-31.044 15.203-33.905 15.997-2.843 31.106.38 45.186 8.38 4.782 2.717 9.431 5.67 15.547 9.366-.646-4.133-.832-6.395-1.363-8.573l-34.475-141.58c-1.209-5.041-1.653-10.646-.815-15.718 1.79-10.83 11.657-18.693 22.573-19.198 9.798-.453 17 4.927 20.073 15.859l21.428 77.951 2.722 9.539c11.855-13.241 24.751-19.704 40.583-7.768 16.608-11.935 28.142-10.01 37.727 1.236 1.836-.854 3.821-1.861 5.87-2.715 10.995-4.581 20.456-1.44 26.295 9.026 1.763 3.159 3.043 6.678 4.005 10.18l23.027 84.76c4.146 15.448 2.165 30.329-4.574 44.725-5.198 11.103-13.219 19.561-24.932 23.064-14.927 4.465-30.071 8.618-45.409 11.182-14.71 2.459-29.058-1.71-42.909-6.877-1.553-.579-2.946-1.652-4.526-2.084-27.982-7.64-50.621-24.775-73.442-41.492-12.396-9.081-24.573-18.28-40.235-21.154-2.482-.455-4.692-2.397-7.559-4.198z"
    fill="#fdfefe" />
  <path
    d="M2799.7 940.28c-31.822-33.944-69.858-55.123-115.19-62.577-83.201-13.683-165.02 25.548-206.47 98.762-46.348 81.859-30.252 182.87 39.282 246.52 8.591 7.864 8.599 7.867 3.313 18.526-2.072 4.177-3.958 8.468-6.338 12.463-3.108 5.216-6.561 5.896-11.593 2.583-1.936-1.275-3.661-2.889-5.4-4.441-52.063-46.444-79.322-104.78-80.627-174.29-2.151-114.53 81.117-214.32 193.98-234.15 128.27-22.529 249.89 62.291 272.71 190.58 6.946 39.058 4.117 77.658-8.775 115.35-.646 1.889-1.214 3.819-2.038 5.63-2.635 5.794-5.738 7.277-10.978 4.346-6.091-3.408-11.84-7.441-17.643-11.344-4.068-2.736-3.385-6.389-2.358-10.637 3.203-13.237 7.006-26.469 8.584-39.936 6.762-57.704-9.674-108.61-46.675-153.11-1.065-1.281-2.209-2.495-3.787-4.268zM2542 986.02c32.997-38.89 74.542-56.022 124.45-51.691 59.434 5.159 111.09 51.706 123.59 110.14 3.663 17.123 4.363 34.301 1.729 51.607-.35 2.297-.729 4.642-1.523 6.808-1.848 5.043-5.488 6.731-10.213 4.048-6.645-3.774-12.93-8.187-19.325-12.395-3.743-2.463-3.076-6.308-2.854-9.951.774-12.707-.039-25.203-3.377-37.605-14.087-52.324-66.81-85.051-118.63-77.269-50.898 7.644-89.984 52.414-90.265 105.03-.118 22.027 5.849 42.168 18.527 60.028 4.503 6.343 5.321 11.657 1.225 18.171-2.468 3.926-4.113 8.36-6.375 12.429-4.324 7.778-8.608 8.337-14.521 1.562-13.332-15.272-22.983-32.691-28.349-52.233-12.873-46.886-3.869-89.557 25.916-128.68z"
    fill="#fbfcfd" />
  <path
    d="M2704.7 1124.2l-4.224 3.079-2.67-7.875-11.878-43.326c-4.547-16.52-14.871-25.677-28.896-25.69-15.142-.014-30.557 10.973-34.482 25.757-1.565 5.892-1.887 12.615-.81 18.606 2.411 13.407 6.088 26.586 9.169 39.876.65 2.805.955 5.69 1.524 9.186-2.178-.3-3.485-.289-4.666-.671-31.199-10.095-52.697-41.2-50.829-73.482 2.018-34.874 26.363-63.353 59.608-69.727 31.13-5.969 62.095 7.562 78.157 34.153 16.31 27 14.151 59.939-5.601 85.109-1.232 1.57-2.603 3.03-4.402 5.005z"
    fill="#d37a23" />
</svg>